<?xml version="1.0" encoding="utf-8"?>
<!-- Generator: Adobe Illustrator 26.0.3, SVG Export Plug-In . SVG Version: 6.00 Build 0)  -->
<svg version="1.1" xmlns="http://www.w3.org/2000/svg" xmlns:xlink="http://www.w3.org/1999/xlink" x="0px" y="0px"
	 viewBox="0 0 2000 2000" style="enable-background:new 0 0 2000 2000;" xml:space="preserve">
<style type="text/css">
	.st0{display:none;}
	.st1{fill:#FFFFFF;}
	.st2{fill:#FFFFFF;stroke:#000000;stroke-width:13;stroke-miterlimit:10;}
	.st3{stroke:#000000;stroke-width:13;stroke-miterlimit:10;}
</style>
<g id="Layer_1" class="st0">
</g>
<g id="Layer_3">
	<rect x="-513.32" y="-245.45" width="2994.64" height="2617.17"/>
</g>
<g id="Layer_2">
	<g>
		<path class="st1" d="M3319.52,1205.15V1019.5h-54.47v-57.46h175.19v57.46h-54.47v185.65H3319.52z"/>
		<path class="st1" d="M3618.58,1121.79c0,12.07-2.35,23.53-7.06,34.37c-4.71,10.85-11.54,20.59-20.51,29.23
			c-9.08,8.63-19.24,15.17-30.47,19.59c-11.24,4.43-23.16,6.64-35.79,6.64c-12.84,0-24.88-2.22-36.12-6.64
			c-11.24-4.43-21.28-10.96-30.14-19.59c-8.86-8.41-15.61-18.07-20.26-28.98c-4.65-10.9-6.97-22.44-6.97-34.62
			c0-12.29,2.3-23.86,6.89-34.71c4.59-10.85,11.37-20.59,20.34-29.23c8.74-8.52,18.74-14.95,29.97-19.26
			c11.23-4.32,23.33-6.48,36.28-6.48s25.02,2.16,36.2,6.48c11.18,4.32,21.2,10.74,30.06,19.26c9.08,8.75,15.94,18.54,20.59,29.39
			C3616.26,1098.1,3618.58,1109.61,3618.58,1121.79z M3559.8,1121.79c0-12.51-3.16-22.36-9.47-29.56
			c-6.31-7.19-14.84-10.79-25.57-10.79c-10.85,0-19.4,3.6-25.66,10.79c-6.26,7.2-9.38,17.05-9.38,29.56c0,12.51,3.1,22.33,9.3,29.47
			c6.2,7.14,14.78,10.71,25.74,10.71c10.85,0,19.4-3.57,25.66-10.71C3556.67,1144.13,3559.8,1134.3,3559.8,1121.79z"/>
		<path class="st1" d="M3652.63,1205.15v-167.72h54.13v34.04c7.86-13.62,16.94-23.58,27.23-29.89c10.3-6.31,22.64-9.47,37.03-9.47
			c10.85,0,20.51,1.74,28.98,5.23c8.47,3.49,15.36,8.5,20.67,15.03c4.43,5.65,7.58,12.51,9.47,20.59c1.88,8.08,2.82,20.15,2.82,36.2
			v95.98h-59.28v-89.84c0-13.39-2.19-23.14-6.56-29.23c-4.37-6.09-11.37-9.13-21.01-9.13c-12.29,0-21.26,4.54-26.9,13.62
			c-5.65,9.08-8.47,23.8-8.47,44.17v70.41H3652.63z"/>
		<path class="st1" d="M4048.5,1133.08h-127.53c0.11,12.95,3.43,22.94,9.96,29.97c6.53,7.03,15.78,10.54,27.73,10.54
			c8.97,0,16.52-1.69,22.67-5.06c6.14-3.38,10.82-8.39,14.03-15.03l44.5,17.93c-5.31,12.84-14.72,22.75-28.23,29.72
			c-13.51,6.97-30.06,10.46-49.65,10.46c-29.23,0-52.67-8.11-70.32-24.33c-17.66-16.22-26.49-37.61-26.49-64.18
			c0-26.13,8.83-47.82,26.49-65.09c17.66-17.27,39.99-25.9,67-25.9c27.79,0,49.71,8.75,65.76,26.24
			c16.05,17.49,24.08,41.46,24.08,71.9V1133.08z M3990.22,1099.71c-1.11-9.52-4.73-17.16-10.88-22.92
			c-6.14-5.76-13.7-8.63-22.67-8.63c-9.63,0-17.3,2.63-23,7.89c-5.7,5.26-9.49,13.15-11.38,23.66H3990.22z"/>
		<path class="st1" d="M4097.32,1126.61c9.85,11.18,19.57,19.54,29.14,25.07c9.57,5.54,19.12,8.3,28.64,8.3
			c8.86,0,16.13-2.38,21.84-7.14c5.7-4.76,8.55-10.79,8.55-18.1c0-8.08-2.46-14.31-7.39-18.68c-4.93-4.37-16.08-8.88-33.46-13.53
			c-23.8-6.42-40.63-14.78-50.48-25.07c-9.85-10.3-14.78-24.41-14.78-42.34c0-23.25,7.78-42.2,23.33-56.87
			c15.55-14.67,35.73-22,60.53-22c13.39,0,26.1,1.8,38.11,5.4c12.01,3.6,23.39,9.05,34.12,16.36l-20.76,47.66
			c-7.53-6.42-15.25-11.26-23.16-14.53c-7.92-3.26-15.75-4.9-23.5-4.9c-7.97,0-14.45,1.91-19.43,5.73
			c-4.98,3.82-7.47,8.72-7.47,14.7c0,6.09,2.18,10.96,6.56,14.61c4.37,3.65,12.81,7.14,25.32,10.46l2.99,0.83
			c27.01,7.31,44.78,15.33,53.3,24.08c5.76,5.98,10.13,13.15,13.12,21.5c2.99,8.36,4.48,17.63,4.48,27.81
			c0,25.8-8.47,46.52-25.41,62.19c-16.94,15.67-39.52,23.5-67.75,23.5c-16.94,0-32.35-2.88-46.25-8.63
			c-13.89-5.76-27.26-14.78-40.1-27.07L4097.32,1126.61z"/>
		<path class="st1" d="M4400.37,1092.57c-5.76-5.09-11.29-8.8-16.61-11.13c-5.31-2.32-10.91-3.49-16.77-3.49
			c-11.74,0-21.06,3.88-27.98,11.62c-6.92,7.75-10.38,18.27-10.38,31.55c0,12.84,3.6,23.08,10.79,30.72
			c7.19,7.64,16.88,11.46,29.06,11.46c5.98,0,11.6-1.19,16.85-3.57c5.26-2.38,10.27-6.06,15.03-11.04V1200
			c-7.09,3.99-14.17,6.92-21.25,8.8c-7.09,1.88-14.39,2.82-21.92,2.82c-25.8,0-46.69-8.27-62.69-24.83c-16-16.55-24-38.33-24-65.34
			c0-26.24,8.16-47.68,24.49-64.35c16.33-16.66,37.28-24.99,62.85-24.99c8.52,0,16.22,0.83,23.08,2.49
			c6.86,1.66,13.34,4.32,19.43,7.97V1092.57z"/>
		<path class="st1" d="M4436.74,1205.15V947.76h58.12v90.33c0,5.98-0.17,11.51-0.5,16.61c-0.33,5.09-0.83,9.69-1.49,13.78
			c7.42-12.51,16.16-21.7,26.24-27.57c10.07-5.87,22.09-8.8,36.03-8.8c10.85,0,20.51,1.74,28.98,5.23s15.36,8.5,20.67,15.03
			c4.43,5.65,7.58,12.51,9.47,20.59c1.88,8.08,2.82,20.15,2.82,36.2v95.98h-59.28v-89.84c0-13.39-2.19-23.14-6.56-29.23
			c-4.37-6.09-11.38-9.13-21.01-9.13c-12.29,0-21.25,4.54-26.9,13.62c-5.65,9.08-8.47,23.8-8.47,44.17v70.41H4436.74z"/>
		<path class="st1" d="M5086.18,1205.15V947.76h59.28v257.39H5086.18z"/>
	</g>
	<path class="st2" d="M1889.97,1491.83H120.55c-2.96,0-5.36-2.4-5.36-5.36V741.98c0-2.96,2.4-5.36,5.36-5.36h1769.42
		c2.96,0,5.36,2.4,5.36,5.36v744.49C1895.33,1489.43,1892.93,1491.83,1889.97,1491.83z"/>
	<line class="st3" x1="106.91" y1="859.7" x2="1901.97" y2="859.7"/>
	<circle cx="651.01" cy="1130.67" r="161.83"/>
	<circle cx="1352.28" cy="1130.67" r="161.83"/>
	<path d="M1163.47,1114.39c0,19.14-9.67,36.86-25.6,47.48c-27.82,18.54-74.8,41.86-136.39,41.82
		c-61.44-0.04-108.31-23.31-136.08-41.82c-15.93-10.62-25.59-28.33-25.59-47.47c0-40.38,40.65-67.08,78.33-52.53
		c23.39,9.03,51.42,15.61,83.51,15.61c10.23,0,44.28-0.67,84.4-15.98c37.33-14.25,77.44,12.88,77.44,52.84V1114.39z"/>
	<polygon points="1209.41,1395.2 814.41,1395.2 569.23,1500.13 1459.3,1500.13 	"/>
	<circle class="st1" cx="652.79" cy="1131.3" r="80.92"/>
	<circle class="st1" cx="1343.27" cy="1131.3" r="80.92"/>
</g>
</svg>
